PathFileType	4	(X/Y/Z)	Patient4_TMGait_0pt6_02_right_02.trc.trc
DataRate	CameraRate	NumFrames	NumMarkers	Units	OrigDataRate	OrigDataStartFrame	OrigNumFrames
84.337349397590	84.337349397590	5	33	mm	84.337349397590	1	       141
Frame#	Time	Sacral			L.Shoulder			Chest			R.Shoulder			Neck			R.ASIS			L.ASIS			R.Thigh.Superior			R.Thigh.Lateral			R.Thigh.Inferior			R.Patella			L.Thigh.Superior			L.Thigh.Lateral			L.Thigh.Inferior			L.Patella			L.Shank.Superior			L.Shank.Lateral			L.Shank.Inferior			R.Shank.Superior			R.Shank.Lateral			R.Shank.Inferior			R.Heel			R.Midfoot.Superior			R.Midfoot.Lateral			R.Toe			L.Heel			L.Midfoot.Lateral			L.Midfoot.Superior			L.Toe			L.Elbow			L.Wrist			R.Elbow			R.Wrist			
		X1	Y1	Z1	X2	Y2	Z2	X3	Y3	Z3	X4	Y4	Z4	X5	Y5	Z5	X6	Y6	Z6	X7	Y7	Z7	X8	Y8	Z8	X9	Y9	Z9	X10	Y10	Z10	X11	Y11	Z11	X12	Y12	Z12	X13	Y13	Z13	X14	Y14	Z14	X15	Y15	Z15	X16	Y16	Z16	X17	Y17	Z17	X18	Y18	Z18	X19	Y19	Z19	X20	Y20	Z20	X21	Y21	Z21	X22	Y22	Z22	X23	Y23	Z23	X24	Y24	Z24	X25	Y25	Z25	X26	Y26	Z26	X27	Y27	Z27	X28	Y28	Z28	X29	Y29	Z29	X30	Y30	Z30	X31	Y31	Z31	X32	Y32	Z32	X33	Y33	Z33	

1	1.760000000000	730.019985957617	1015.872253750119	467.452123468050	900.945672725449	1445.658391189324	294.837296977833	1010.632974508367	1373.984787875249	449.603690528605	931.066952668069	1438.524525718990	628.620035395889	888.320780054301	1501.010988206564	449.317648713928	956.652792610447	945.429278167224	579.347210401772	940.295285394804	968.297842437544	306.314480628593	1025.065299236449	763.837546050514	550.396645584617	974.694088649704	646.940823859460	623.925492874343	1060.508508907883	599.151073077607	544.563580615971	1067.431907124043	483.062611509909	567.118818642714	981.410984923191	750.474797234384	331.771606750597	882.464167198033	638.093545440014	282.694062323630	965.031802098397	557.503341132078	343.506067239780	962.383485556920	488.517120695933	356.717479236126	935.635980676335	417.787623292358	352.084490567074	843.610057561505	303.653210133482	306.967215520058	893.287885847111	193.884886216218	380.751775576336	981.755239613728	418.205828985777	575.066624878219	856.190181585168	397.250392531746	636.376458205483	826.355392783673	290.995794618213	588.876434569209	619.563317276185	258.633421918355	562.455879131171	777.010323513624	174.991469701228	601.235537343114	667.707931327014	187.562267053711	633.279916542979	825.109373929925	53.508661887426	623.942340332507	762.375241485095	39.482178163217	429.892414896477	834.650017951782	36.015779756869	347.770830017776	919.263770643449	95.951552335942	372.279897685097	1046.813559503578	40.166485937432	341.478723077266	897.807626907244	1103.038213154514	144.748835130425	1074.233912122916	910.054214905722	126.766020949113	889.437854570065	1085.212604699271	730.052368083269	971.312256582554	836.294286551065	726.879703579054	
2	1.771857142857	728.715562422032	1016.531210228199	466.466100625476	901.833016459108	1446.276476119479	294.336561548688	1010.204247871320	1374.268954331692	449.808765037632	929.468490185374	1438.907443592521	628.196156836677	888.343374983991	1501.504604623135	448.837427236207	955.022929251491	946.441845268729	579.297295446947	940.765066876650	968.989642212685	306.041359870412	1026.765985613639	768.194935030274	550.030440911388	979.633547538460	650.482299630989	623.863696930504	1066.245343791803	604.666837465105	544.190763518285	1076.254218062257	488.936643590538	566.719766701866	978.560648651353	749.581004978462	333.067982024465	878.780865008929	638.270343797083	282.827819920372	959.643620045262	556.831968607189	344.355374979491	955.989750077879	488.016997368638	357.559140308565	929.189026105064	417.655447501509	352.501543450281	836.980684095725	303.836794918509	306.965438557196	886.063128960822	193.894267344722	380.891705698569	992.259795344314	422.085195372802	574.875524642694	867.456689177801	397.579402346702	636.116104616789	840.662920705003	290.598475807975	588.609994189815	634.900921986753	252.010182449979	562.154834806781	794.693075734476	173.457320206404	601.040272018539	685.257962641081	182.888737723882	633.247430767726	846.528960762308	53.726887380315	624.359822768565	754.702973528450	39.547386290462	429.771521939680	827.068988253100	36.000135551033	347.703805637695	911.692358579732	95.975703323438	372.214573551961	1039.224359722207	40.173208297039	341.442885482398	903.746487047165	1104.571946632074	143.253784605220	1088.255385411250	920.405221069552	125.732331141350	879.424805828586	1087.393385428681	729.452583266617	947.305431409532	835.530192059999	727.519260113159	
3	1.783714285714	727.418334823683	1017.161973879968	465.486338773837	902.741167870639	1446.859555800350	293.866923335591	1009.803031443458	1374.510863295595	450.034884705936	927.907909680117	1439.256328469333	627.795500658704	888.382370147330	1501.966911907854	448.376729647420	953.392782568322	947.417851320422	579.285333364204	941.197247568329	969.609373904498	305.811806727082	1028.388832955325	772.482103297022	549.692349988556	984.451464408780	653.978033070897	623.820219323664	1071.807584131032	610.094403103328	543.819416604305	1084.855582596394	494.753409732089	566.347014716391	975.738153313193	748.679888133965	334.384834224426	875.135116764697	638.430580453802	282.958325070149	954.299965101004	556.153298982438	345.203391438796	949.659062218978	487.516702819504	358.388565272854	922.809058465014	417.512081605783	352.918294778271	830.425864420663	304.005037915731	306.964736742632	878.917421925984	193.894464858123	381.034227977068	1002.589104150213	425.890857335040	574.719555180440	878.572343996819	397.774879624789	635.901519379747	854.886834376278	290.050105656088	588.404887775135	650.190297800333	245.142308249287	561.936239778321	812.356103598144	171.754944190383	600.922417356268	702.784491662230	177.998718541085	633.296328344618	867.977609697477	53.805752328621	624.860339122983	747.121608909081	39.601908452084	429.657369799449	819.572630461267	35.981029325884	347.638362136034	904.204241955161	95.997207245719	372.155412204414	1031.722522515128	40.180972305971	341.411726124501	909.546498406809	1106.075301716584	141.798464711730	1102.000725450967	930.728020583071	124.785896181160	869.441009883846	1089.600069965680	728.889161323335	923.709335706563	834.974269911264	728.136252102888	
4	1.795571428571	726.133943787261	1017.732100248929	464.522531872641	903.703976165129	1447.361821210935	293.463322394120	1009.460146461969	1374.658177991661	450.313013017388	926.424984580289	1439.536305991330	627.446009798608	888.458997233209	1502.358595345914	447.956659477494	951.753807819146	948.311338119987	579.357035695913	941.543848158298	970.080830019674	305.677610573987	1029.828078931570	776.600279718378	549.421502730637	988.981289639704	657.351626171881	623.826507396360	1076.986323658346	615.311565306690	543.478224010767	1092.988400679493	500.443679035262	566.047840338974	972.958200127550	747.754707385100	335.734211502348	871.542701792689	638.552800052043	283.087252805171	949.021683221784	555.452763594756	346.048631911967	943.427026935934	487.008584284192	359.193871886739	916.527428093137	417.341181096553	353.335138797692	823.975170255425	304.143728752093	306.967349731424	871.871731010794	193.873040574042	381.182876705404	1012.578881209355	429.544774511770	574.649866759268	889.464520655794	397.654726433933	635.800587101598	869.072780050822	289.186214995254	588.333340265594	665.624735466087	237.685857569187	561.887003915601	830.175337623821	169.736415308366	600.972533515244	720.507053200858	172.639902439246	633.520768637477	889.709504699272	53.714495178474	625.549173965181	739.654839920230	39.638890085795	429.554639521987	812.179704170469	35.955876162944	347.576016880657	896.817186140550	96.012418233682	372.108324123415	1024.328710720567	40.189948123434	341.388959712842	915.108278042248	1107.512264887303	140.422278690448	1115.240088975968	941.047801491042	124.034250852152	859.493224350807	1091.879220513596	728.396076663845	900.832401899716	834.840136795231	728.721831119156	
5	1.807428571429	724.868966798169	1018.212322698324	463.585580690730	904.753288033313	1447.740195528397	293.154469644960	1009.201814786955	1374.664064493079	450.671475383420	925.053188643537	1439.718570572413	627.171470382723	888.593237505022	1502.644473081124	447.595795183421	950.096594773868	949.080091594422	579.552115610589	941.761945956062	970.342103574401	305.684319064834	1030.989668750135	780.458869512208	549.251233125264	993.074162393079	660.528939508791	623.909130683424	1081.602598817862	620.205458343949	543.197558837314	1100.443155302601	505.943226603862	565.867314583149	970.228947752196	746.788158492796	337.116237944891	868.010892629078	638.617481343517	283.216219378327	943.822176340768	554.715722229707	346.887905977123	937.319667115018	486.483759904557	359.962852504095	910.362808264985	417.127278962226	353.751248147774	817.640906646680	304.241648439052	306.975319461333	864.925663704213	193.817988574424	381.340540427311	1022.097755368753	432.981840157170	574.715200022006	900.096678248930	397.057292582340	635.873241849997	883.296354501223	287.874820194958	588.458127924277	681.439214975273	229.341063421593	562.070937375036	848.350144748634	167.297953890282	601.269740170545	738.674767420889	166.609044630142	633.999545660776	911.991333505577	53.473506647724	626.527595259555	732.301406248111	39.654556675115	429.465605680446	804.884752828291	35.922887986707	347.518346250426	889.525494843041	96.018047927801	372.077964473580	1017.038757135656	40.199790697505	341.377044842029	920.368701030024	1108.848632067592	139.154876483664	1127.801650565095	951.395703458658	123.569355766706	849.588281512171	1094.275305510075	727.998958296315	878.889707780931	835.291599622880	729.273967531572	
